<?xml version="1.0" encoding="utf-8"?>
<!-- Generator: Adobe Illustrator 16.0.3, SVG Export Plug-In . SVG Version: 6.00 Build 0)  -->
<!DOCTYPE svg PUBLIC "-//W3C//DTD SVG 1.1//EN" "http://www.w3.org/Graphics/SVG/1.1/DTD/svg11.dtd">
<svg version="1.1" id="Layer_1" xmlns="http://www.w3.org/2000/svg" xmlns:xlink="http://www.w3.org/1999/xlink" x="0px" y="0px"
	 width="471.883px" height="165px" viewBox="0 -4.02 471.883 165" enable-background="new 0 -4.02 471.883 165"
	 xml:space="preserve">
<g>
	<g>
		<path fill="#C92445" d="M142.24,113.376l8.643-45.441c0.98-5.168,1.871-11.049,2.406-15.414h6.772l-1.158,8.196h0.179
			c3.832-5.701,9.535-9.088,15.505-9.088c9.266,0,13.188,7.663,13.188,15.592c0,15.237-10.871,29.492-25.217,29.492
			c-4.543,0-7.573-0.98-9.267-1.96h-0.177l-3.476,18.62L142.24,113.376L142.24,113.376z M154.359,88.518
			c1.96,1.515,4.722,2.407,8.286,2.407c9.534,0,17.463-11.852,17.463-23.167c0-4.544-1.961-9.979-8.286-9.979
			c-5.791,0-13.008,6.594-15.237,18.711L154.359,88.518z"/>
		<path fill="#C92445" d="M208.892,96.716c-10.782,0-16.842-8.019-16.842-17.731c0-14.256,9.891-27.354,23.879-27.354
			c11.673,0,16.93,8.821,16.93,17.909c0,13.364-9.444,27.175-23.879,27.175L208.892,96.716L208.892,96.716z M209.781,90.834
			c8.733,0,15.325-11.227,15.325-21.294c0-4.99-2.316-12.029-10.068-12.029c-9.266,0-15.415,11.315-15.415,21.206
			c0,7.038,3.921,12.116,10.069,12.116L209.781,90.834L209.781,90.834z"/>
		<path fill="#C92445" d="M236.248,95.736l5.255-27.798c1.068-5.614,1.693-11.316,2.14-15.326h6.503
			c-0.268,3.029-0.622,5.97-1.156,9.355h0.266c2.853-5.88,7.396-10.335,13.19-10.335c0.711,0,1.515,0.088,2.138,0.178l-1.427,7.307
			c-0.533-0.09-1.247-0.178-2.048-0.178c-6.327,0-12.031,7.752-13.899,17.731l-3.565,19.067H236.248L236.248,95.736z"/>
		<path fill="#C92445" d="M285.343,42.275L283.38,52.61h10.336l-1.159,5.792h-10.335l-3.921,21.027
			c-0.534,2.407-0.891,4.633-0.891,6.86c0,2.584,1.249,4.187,4.1,4.187c1.338,0,2.495-0.09,3.476-0.354l-0.356,5.789
			c-1.337,0.533-3.564,0.803-5.703,0.803c-6.502,0-9.088-3.922-9.088-8.376c0-2.495,0.357-4.989,0.98-8.109l4.188-21.829h-6.147
			l1.068-5.791h6.146l1.516-7.93L285.343,42.275z"/>
		<path fill="#C92445" d="M295.233,95.736l7.037-37.333h-5.701l1.068-5.792h5.792l0.355-2.317c1.068-5.97,3.207-11.493,7.039-14.968
			c2.764-2.495,6.504-3.831,10.246-3.831c3.03,0,4.901,0.533,5.97,1.158l-1.604,5.88c-1.158-0.535-2.673-0.803-4.366-0.803
			c-5.881,0-8.731,5.703-9.979,12.831l-0.357,2.048h9.625l-1.16,5.792h-9.533l-7.039,37.333L295.233,95.736L295.233,95.736z"/>
		<path fill="#C92445" d="M334.884,96.716c-10.781,0-16.841-8.019-16.841-17.731c0-14.256,9.892-27.354,23.878-27.354
			c11.673,0,16.93,8.821,16.93,17.909c0,13.364-9.444,27.175-23.879,27.175L334.884,96.716L334.884,96.716z M335.774,90.834
			c8.734,0,15.324-11.227,15.324-21.294c0-4.99-2.315-12.029-10.067-12.029c-9.266,0-15.414,11.315-15.414,21.206
			c0,7.038,3.92,12.116,10.067,12.116L335.774,90.834L335.774,90.834z"/>
		<path fill="#C92445" d="M362.326,95.736l12.03-63.26h7.396l-12.028,63.26H362.326z"/>
		<path fill="#C92445" d="M380.862,95.736l8.195-43.125h7.396l-8.195,43.125H380.862z M394.671,44.681
			c-2.585,0-4.365-2.049-4.365-4.811c0.089-2.94,2.316-5.257,5.08-5.257c2.761,0,4.633,2.048,4.633,4.812
			c-0.091,3.119-2.316,5.256-5.258,5.256H394.671z"/>
		<path fill="#C92445" d="M416.858,96.716c-10.781,0-16.841-8.019-16.841-17.731c0-14.256,9.891-27.354,23.879-27.354
			c11.671,0,16.93,8.821,16.93,17.909c0,13.364-9.445,27.175-23.88,27.175L416.858,96.716L416.858,96.716z M417.748,90.834
			c8.733,0,15.324-11.227,15.324-21.294c0-4.99-2.317-12.029-10.069-12.029c-9.265,0-15.413,11.315-15.413,21.206
			c0,7.038,3.922,12.116,10.069,12.116L417.748,90.834L417.748,90.834z"/>
	</g>
	<path fill="#C92445" d="M57.842,116.193l-0.838-0.939l-1.398-1.569l-0.698-0.784c-0.24-0.263-0.473-0.523-0.624-0.764l-2.12-2.945
		c-0.344-0.507-0.743-0.934-1.052-1.502l-0.962-1.646c-0.624-1.109-1.337-2.174-1.9-3.316l-1.609-3.472
		c-0.595-1.133-0.959-2.362-1.394-3.564c-0.395-1.213-0.925-2.39-1.219-3.637c-0.609-2.488-1.334-4.957-1.622-7.517
		c-0.503-2.53-0.565-5.11-0.743-7.688c-0.094-1.29,0.045-2.581,0.05-3.875c0.038-1.294,0.031-2.595,0.243-3.877l0.463-3.871
		c0.222-1.28,0.54-2.545,0.8-3.822l0.408-1.918l0.586-1.866l1.189-3.75l1.54-3.633c0.269-0.601,0.479-1.232,0.796-1.808l0.945-1.741
		c0.651-1.149,1.213-2.359,1.934-3.473l2.237-3.309c0.645-1.059,1.468-1.984,2.243-2.96l1.167-1.465l0.582-0.743l0.29-0.373
		l0.145-0.187l0.036-0.046c0.033-0.033-0.273,0.27-0.141,0.136l0.005-0.004l0.011-0.012l0.022-0.021l0.087-0.091
		c0.931-0.972,1.866-1.949,2.805-2.929c0.232-0.235,0.471-0.515,0.698-0.711l0.684-0.582l1.368-1.185
		c3.76-3.164,8.348-5.901,13.286-7.504c5.757-1.826,11.421-2.343,16.648-1.861c5.238,0.471,10.04,1.837,14.422,3.739
		c4.431,1.847,8.275,4.543,11.892,7.494l1.321,1.16l0.667,0.58l0.334,0.289l0.167,0.144l0.083,0.074l0.042,0.035l0.021,0.02
		c-0.151-0.167-0.036-0.041-0.068-0.076l0.013,0.012c0.849,0.896,1.703,1.794,2.56,2.698c0.788,0.901,1.438,1.805,2.2,2.718
		c0.736,0.915,1.343,1.991,2.05,2.993c1.448,3.105,2.706,6.351,3.394,9.771c0.468,1.684,0.595,3.437,0.88,5.168l0.159,2.632
		c0.019,0.439,0.063,0.879,0.068,1.319l-0.04,1.321c-0.059,7.076-2.027,14.183-5.577,20.435c-1.001,1.482-1.863,3.086-3.049,4.441
		c-0.562,0.683-1.117,1.456-1.681,2.075l-1.913,1.969c-2.591,2.405-5.649,4.406-8.925,5.785c-3.284,1.381-6.798,2.193-10.31,2.317
		c-3.51,0.111-6.992-0.413-10.225-1.473c-4.09-1.341-7.912-4.051-11.016-7.139c-3.173-3.069-5.572-6.567-7.879-9.867
		c0.788,2.23,1.646,4.403,3.024,6.462c0.333,0.494,0.654,1.087,1.005,1.507l1.042,1.328l0.26,0.332l0.13,0.168l0.034,0.04
		l0.016,0.021l0.083,0.091l0.077,0.079l0.62,0.639l1.25,1.277c3.428,3.313,7.641,5.93,12.286,7.428
		c9.26,3.083,20.104,1.769,28.521-3.918c0.974-0.711,2.066-1.462,2.943-2.182l1.199-1.047l0.602-0.525l0.301-0.263l0.076-0.063
		l0.206-0.203l0.149-0.16l2.386-2.543c0.812-0.839,1.455-1.818,2.19-2.729c2.779-3.754,5.119-7.933,6.648-12.462
		c3.054-9.015,3.517-19.259,0.35-28.808c-1-3.292-2.516-6.423-4.249-9.428c-0.909-1.517-2.056-3.073-3.102-4.541l-1.476-1.747
		l-0.741-0.872l-0.371-0.436l-0.228-0.248l-0.028-0.026l-0.057-0.055l-0.116-0.112l-0.229-0.222
		c-4.688-4.953-10.459-8.983-16.796-11.818c-6.343-2.837-13.29-4.432-20.325-4.619c-7.036-0.196-14.157,1.01-20.825,3.564
		c-3.242,1.258-6.405,2.809-9.364,4.71c-1.506,0.831-2.994,2.059-4.474,3.175l-1.107,0.857l-0.551,0.434
		c-0.167,0.14-0.292,0.268-0.441,0.402l-1.715,1.602l-0.857,0.801l-0.429,0.402L50.085,26.5L49.977,26.6l-0.246,0.244l-0.014,0.015
		l-0.026,0.03l-0.054,0.061l-1.709,1.952l-1.705,1.961c-0.563,0.66-1.158,1.294-1.633,2.021l-3.007,4.266
		c-0.986,1.433-1.761,3-2.645,4.505c-6.779,12.219-8.675,25.304-7.599,39.114c0.163,2.252,0.584,4.546,0.89,6.9
		c0.448,2.333,1.066,4.692,1.633,7.104c0.395,1.179,0.793,2.367,1.196,3.563c0.203,0.597,0.408,1.199,0.612,1.802
		c0.193,0.607,0.417,1.207,0.696,1.788c0.524,1.173,1.054,2.354,1.586,3.547l0.809,1.788l0.973,1.72
		c0.656,1.146,1.317,2.303,1.98,3.462c0.308,0.581,0.705,1.155,1.119,1.729l1.224,1.725c0.818,1.128,1.658,2.352,2.486,3.396
		c0.814,0.935,1.634,1.87,2.457,2.809l1.234,1.412l0.308,0.352c0,0,0.193,0.208,0.257,0.276c0.012,0.013,0.034,0.033,0.046,0.046
		c0.021,0.023,0.067,0.066,0.089,0.09c0.099,0.098,0.394,0.398,0.394,0.398c0.944,0.829,2.018,1.708,3.039,2.526
		c1.031,0.808,2.05,1.651,3.117,2.419c2.731,2.434,5.703,4.665,8.862,6.67c3.19,1.942,6.528,3.72,10.034,5.143
		c6.997,2.876,14.505,4.562,21.984,5.053c3.743,0.212,7.472,0.203,11.142-0.129c3.664-0.356,7.271-0.894,10.76-1.738
		c6.977-1.67,13.519-4.193,19.387-7.335c3.691-1.951,7.704-3.995,11.238-6.585c3.539-2.561,8.593-7.211,10.426-10.556
		c-6.5,6.031-13.896,10.974-21.897,14.459c-8.012,3.454-16.581,5.478-25.226,5.934c-8.096,0.469-16.23-0.774-23.91-3.267
		c-7.705-2.479-14.902-6.391-21.477-11.241c-1.112-0.856-2.248-1.681-3.304-2.608l-1.615-1.357l-1.485-1.379
		c-1.925-1.668-2.706-2.489-3.162-3.029"/>
</g>
</svg>
